<svg width="500" height="500" viewBox="0 0 500 500" fill="none" xmlns="http://www.w3.org/2000/svg">
<rect width="500" height="500" fill="#101010"/>
<path d="M208.7 144.4V185.5H122.9V229.9H187.1V269.8H122.9V355H71.6V144.4H208.7Z" fill="#FFAA00"/>
<path d="M226.962 249.4C226.962 228.6 231.463 210.1 240.463 193.9C249.463 177.5 261.963 164.8 277.963 155.8C294.163 146.6 312.463 142 332.863 142C357.863 142 379.263 148.6 397.063 161.8C414.863 175 426.763 193 432.763 215.8H376.363C372.163 207 366.163 200.3 358.363 195.7C350.763 191.1 342.063 188.8 332.263 188.8C316.463 188.8 303.663 194.3 293.863 205.3C284.063 216.3 279.163 231 279.163 249.4C279.163 267.8 284.063 282.5 293.863 293.5C303.663 304.5 316.463 310 332.263 310C342.063 310 350.763 307.7 358.363 303.1C366.163 298.5 372.163 291.8 376.363 283H432.763C426.763 305.8 414.863 323.8 397.063 337C379.263 350 357.863 356.5 332.863 356.5C312.463 356.5 294.163 352 277.963 343C261.963 333.8 249.463 321.1 240.463 304.9C231.463 288.7 226.962 270.2 226.962 249.4Z" fill="white"/>
</svg>
